<svg width="65" height="96" viewBox="0 0 65 96" fill="none" xmlns="http://www.w3.org/2000/svg">
<path d="M17.364 28.196H0.468C0.638667 22.9053 2.04667 18.212 4.692 14.116C7.33733 9.93466 11.1347 6.64933 16.084 4.25999C21.0333 1.87066 26.836 0.675995 33.492 0.675995C39.8067 0.675995 45.3107 1.74266 50.004 3.876C54.6973 5.924 58.2813 8.78266 60.756 12.452C63.316 16.036 64.596 20.0467 64.596 24.484C64.596 28.4947 63.5293 32.1213 61.396 35.364C59.348 38.6067 56.02 42.148 51.412 45.988C46.7187 49.9133 43.5613 52.9 41.94 54.948C40.3187 56.996 39.508 59.2573 39.508 61.732V64.036H23.252V60.324C23.252 55.8867 24.276 52.132 26.324 49.06C28.4573 45.988 31.9133 42.4467 36.692 38.436C40.532 35.1933 43.1773 32.7187 44.628 31.012C46.0787 29.22 46.804 27.3853 46.804 25.508C46.804 22.3507 45.4387 19.876 42.708 18.084C39.9773 16.292 36.6493 15.396 32.724 15.396C28.116 15.396 24.4467 16.5907 21.716 18.98C19.0707 21.3693 17.62 24.4413 17.364 28.196ZM23.892 92.708C25.8547 94.5853 28.372 95.524 31.444 95.524C34.516 95.524 36.9907 94.5853 38.868 92.708C40.8307 90.7453 41.812 88.228 41.812 85.156C41.812 82.084 40.8307 79.6093 38.868 77.732C36.9907 75.7693 34.516 74.788 31.444 74.788C28.372 74.788 25.8547 75.7693 23.892 77.732C22.0147 79.6093 21.076 82.084 21.076 85.156C21.076 88.228 22.0147 90.7453 23.892 92.708Z" fill="white"/>
</svg>
