<svg width="158" height="181" viewBox="0 0 158 181" fill="none" xmlns="http://www.w3.org/2000/svg">
<path d="M63.364 78.196H46.468C46.6387 72.9053 48.0467 68.212 50.692 64.116C53.3373 59.9347 57.1347 56.6493 62.084 54.26C67.0333 51.8707 72.836 50.676 79.492 50.676C85.8067 50.676 91.3107 51.7427 96.004 53.876C100.697 55.924 104.281 58.7827 106.756 62.452C109.316 66.036 110.596 70.0467 110.596 74.484C110.596 78.4947 109.529 82.1213 107.396 85.364C105.348 88.6067 102.02 92.148 97.412 95.988C92.7187 99.9133 89.5613 102.9 87.94 104.948C86.3187 106.996 85.508 109.257 85.508 111.732V114.036H69.252V110.324C69.252 105.887 70.276 102.132 72.324 99.06C74.4573 95.988 77.9133 92.4467 82.692 88.436C86.532 85.1933 89.1773 82.7187 90.628 81.012C92.0787 79.22 92.804 77.3853 92.804 75.508C92.804 72.3507 91.4387 69.876 88.708 68.084C85.9773 66.292 82.6493 65.396 78.724 65.396C74.116 65.396 70.4467 66.5907 67.716 68.98C65.0707 71.3693 63.62 74.4413 63.364 78.196ZM69.892 142.708C71.8547 144.585 74.372 145.524 77.444 145.524C80.516 145.524 82.9907 144.585 84.868 142.708C86.8307 140.745 87.812 138.228 87.812 135.156C87.812 132.084 86.8307 129.609 84.868 127.732C82.9907 125.769 80.516 124.788 77.444 124.788C74.372 124.788 71.8547 125.769 69.892 127.732C68.0147 129.609 67.076 132.084 67.076 135.156C67.076 138.228 68.0147 140.745 69.892 142.708Z" fill="white"/>
<path d="M89.5 40L94.5 11.5M116 46L128 34M128 65.5L156.5 53M128 94.5H156.5M122 130L138 139.5M111 155.5L122 176M83.5 159.5L84.5 179.5M58.5 149L37 176M37 122.5L15 130M37 94.5H9M37 65.5L2 53M49.5 49.5L37 34M68.5 36L60.5 2" stroke="white" stroke-width="3" stroke-linecap="round"/>
</svg>
