<svg width="145" height="260" viewBox="0 0 145 260" fill="none" xmlns="http://www.w3.org/2000/svg">
<path d="M14.8863 10.8664H20.5969C20.5969 10.8664 9.61695 25.8017 4.34368 40.7371C-0.929596 55.6725 4.34368 238.85 4.34368 238.85C5.51508 240.314 16.6454 252.907 21.0361 254.664C40.8055 259.496 105.379 258.711 125.144 254.664C129.978 253.346 142.715 238.85 142.715 238.85C142.715 238.85 144.035 72.3649 142.715 40.7371C142.715 30.5529 124.705 10.8664 124.705 10.8664H129.976C130.123 10.1342 130.328 7.8793 129.976 4.71652C96.5915 -0.203361 39.3393 2.66657 14.8863 4.71652V10.8664Z" stroke="white" stroke-width="3"/>
</svg>
